<?xml version="1.0" encoding="UTF-8"?>
<svg height="128px" viewBox="0 0 128 128" width="128px" xmlns="http://www.w3.org/2000/svg" xmlns:xlink="http://www.w3.org/1999/xlink">
    <linearGradient id="a" gradientUnits="userSpaceOnUse" x1="8.000547" x2="119.999451" y1="64.000443" y2="64.000443">
        <stop offset="0" stop-color="#a51d2d"/>
        <stop offset="0.0357097" stop-color="#ed333b"/>
        <stop offset="0.0714244" stop-color="#c01c28"/>
        <stop offset="0.928576" stop-color="#a51d2d"/>
        <stop offset="0.96429" stop-color="#ed333b"/>
        <stop offset="1" stop-color="#a51d2d"/>
    </linearGradient>
    <path d="m 64.007812 12 c -2.929687 -0.003906 -5.628906 1.597656 -7.03125 4.171875 l -47.910156 87.828125 h -1.066406 v 4 c 0 4.417969 3.582031 8 8 8 h 96 c 4.417969 0 8 -3.582031 8 -8 c 0 -0.015625 0 -0.027344 0 -0.042969 v -3.957031 h -1.070312 l -47.90625 -87.828125 c -1.402344 -2.570313 -4.089844 -4.167969 -7.015626 -4.171875 z m -0.007812 24.707031 l 34.523438 63.292969 h -69.046876 z m 0 0" fill="url(#a)"/>
    <path d="m 16 104 h 96 l -48 -88 z m 0 0" fill="#ffffff" stroke="#e01b24" stroke-linecap="round" stroke-linejoin="round" stroke-width="16"/>
    <path d="m 16 104 h 96 l -48 -88 z m 0 0" fill="#ffffff" stroke="#e01b24" stroke-linecap="round" stroke-linejoin="round" stroke-width="8"/>
    <g fill="#241f31">
        <path d="m 70.355469 89 c 0 3.3125 -2.6875 6 -6 6 c -3.316407 0 -6 -2.6875 -6 -6 s 2.683593 -6 6 -6 c 3.3125 0 6 2.6875 6 6 z m 0 0"/>
        <path d="m 72 55 c 0 4.417969 -3.582031 8 -8 8 s -8 -3.582031 -8 -8 s 3.582031 -8 8 -8 s 8 3.582031 8 8 z m 0 0"/>
        <path d="m 69 75 c 0 2.761719 -2.238281 5 -5 5 s -5 -2.238281 -5 -5 s 2.238281 -5 5 -5 s 5 2.238281 5 5 z m 0 0"/>
        <path d="m 56.0625 56 l 3.039062 20 h 9.796876 l 3.039062 -20 z m 0 0"/>
    </g>
</svg>
