<svg xmlns="http://www.w3.org/2000/svg" version="1.1" xmlns:xlink="http://www.w3.org/1999/xlink" viewBox="0 0 100 100">
 <defs>  
  <linearGradient id="g" x1="0%" y1="0%" x2="100%" y2="0%">
   <stop offset="0%" style="stop-color:#fa5252;"/>
   <stop offset="5%" style="stop-color:#fd7e14;"/>
   <stop offset="15%" style="stop-color:#fab005;"/>
   <stop offset="25%" style="stop-color:#40c057;"/>
   <stop offset="35%" style="stop-color:#228be6;"/>
   <stop offset="45%" style="stop-color:#7950f2;"/>
   <stop offset="60%" style="stop-color:#228be6;"/>
   <stop offset="70%" style="stop-color:#40c057;"/>
   <stop offset="80%" style="stop-color:#fab005;"/>
   <stop offset="90%" style="stop-color:#fd7e14;"/>
   <stop offset="100%" style="stop-color:#fa5252;"/>
  </linearGradient>
  <pattern id="p" x="0" y="-70" width="600" height="500" patternUnits="userSpaceOnUse">
   <g transform="rotate(45)">
    <rect x="0" y="0" width="300" height="500" fill="url(#g)">
     <animate attributeType="XML" attributeName="x" from="0" to="300" dur="10s" repeatCount="indefinite"/>
    </rect>
    <rect x="-150" y="0" width="300" height="500" fill="url(#g)">
     <animate attributeType="XML" attributeName="x" from="-300" to="0" dur="10s" repeatCount="indefinite"/>
    </rect>
   </g>
  </pattern>
 </defs>
 <g fill="none" stroke="url(#p)" stroke-linejoin="round" stroke-width="1.8">
  <path d="M72.09 13.86 L53.18 24.8 l18.93 10.92 18.91 -10.94z"/>
  <path d="M49.87 1.05 L30.95 11.99 49.88 22.9 68.8 11.97z"/>
  <path d="M27.67 13.89 L8.75 24.82 l18.93 10.92 18.91 -10.93z"/>
  <path d="M49.89 26.7 L30.97 37.64 49.9 48.55 l18.92 -10.93z"/>
  <path d="M7.11 27.67 l.01 21.86 18.93 10.91 -.01 -21.85z"/>
  <path d="M29.33 40.49 l.01 21.85 18.93 10.92 -.01 -21.85z"/>
  <path d="M7.12 53.32 l.01 21.85 18.93 10.91 -.01 -21.85z"/>
  <path d="M29.34 66.14 l.01 21.85 L48.28 98.9 l-.01 -21.85z"/>
  <path d="M51.57 98.9 l18.92 -10.93 -.01 -21.85 -18.92 10.93z"/>
  <path d="M73.78 86.06 L92.7 75.13 l-.02 -21.85 -18.91 10.93z"/>
  <path d="M73.76 60.41 l18.92 -10.93 -.01 -21.85 -18.92 10.93z"/>
  <path d="M51.55 51.4 l.01 21.85 18.91 -10.93 -.01 -21.85z"/>
  <animateTransform
    attributeName="transform" 
    attributeType="XML" 
    type="rotate"
    dur="12s" 
    from="0 50 50"
    to="360 50 50" 
    repeatCount="indefinite" />
 </g>
<image transform="rotate(30) translate(-12,-62)" x="50%" y="50%" width="60" height="60" xlink:href="https://minecraft.wiki/images/Glow_Squid_JE1.gif?dcad8"/>

</svg> 