<svg xmlns="http://www.w3.org/2000/svg" width="87.189" height="99.451" viewBox="0 0 87.189 99.451">
 <defs>
  <linearGradient id="g" x1="0" y1="0" x2="100%" y2="100%" gradientUnits="userSpaceOnUse">
   <stop offset="15%" stop-color="#25b8ff" />
   <stop offset="85%" stop-color="#fa02ff" />
  </linearGradient>
 </defs>
 <g fill="none" stroke="url(#g)" stroke-linejoin="round" stroke-width="1.8">
  <path d="m65.795 13.615-18.917 10.935 18.929 10.917 18.917-10.936z"/>
  <path d="m43.574 0.80132-18.917 10.938 18.928 10.914 18.917-10.931z"/>
  <path d="m21.367 13.639-18.917 10.936 18.929 10.914 18.914-10.932z"/>
  <path d="m43.588 26.452-18.917 10.936 18.928 10.914 18.917-10.936z"/>
  <path d="m0.80657 27.425 0.01169 21.851 18.928 10.915-0.01066-21.851z"/>
  <path d="m23.027 40.238 0.01169 21.85 18.928 10.916-0.01066-21.851z"/>
  <path d="m0.82029 53.075 0.01169 21.85 18.929 10.915-0.01272-21.85z"/>
  <path d="m23.041 65.887 0.0117 21.85 18.928 10.915-0.01066-21.851z"/>
  <path d="m45.271 98.652 18.917-10.936-0.01169-21.85-18.916 10.936z"/>
  <path d="m67.478 85.814 18.918-10.936-0.0117-21.851-18.917 10.937z"/>
  <path d="m67.465 60.164 18.916-10.935-0.01169-21.851-18.916 10.937z"/>
  <path d="m45.247 51.151 0.0117 21.85 18.917-10.935-0.01169-21.851z"/>
 </g>
</svg>
