<svg xmlns="http://www.w3.org/2000/svg" version="1.1" xmlns:xlink="http://www.w3.org/1999/xlink" viewBox="0 0 100 100">
  <defs>
    <linearGradient id="g" x1="0%" y1="0%" x2="100%" y2="0%">
      <stop offset="0%" stop-color="#fa5252"/>
      <stop offset="5%" stop-color="#fd7e14"/>
      <stop offset="15%" stop-color="#fab005"/>
      <stop offset="25%" stop-color="#40c057"/>
      <stop offset="35%" stop-color="#228be6"/>
      <stop offset="45%" stop-color="#7950f2"/>
      <stop offset="60%" stop-color="#228be6"/>
      <stop offset="70%" stop-color="#40c057"/>
      <stop offset="80%" stop-color="#fab005"/>
      <stop offset="90%" stop-color="#fd7e14"/>
      <stop offset="100%" stop-color="#fa5252"/>
    </linearGradient>
    <pattern id="p" x="0" y="-70" width="600" height="500" patternUnits="userSpaceOnUse">
      <g fill="url(#g)" transform="rotate(45)">
        <rect width="300" height="500">
          <animate attributeType="XML" attributeName="x" from="0" to="300" dur="10s" repeatCount="indefinite"/>
        </rect>
        <rect x="-300" width="300" height="500" >
          <animate attributeType="XML" attributeName="x" from="-300" to="0" dur="10s" repeatCount="indefinite"/>
        </rect>
      </g>
    </pattern>
  </defs>
  <g fill="none" stroke="url(#p)" stroke-linejoin="round" stroke-width="1.8">
    <path d="M72.09 13.86 53.18 24.8l18.93 10.92 18.91-10.94zM49.87 1.05 30.95 11.99 49.88 22.9 68.8 11.97zM27.67 13.89 8.75 24.82l18.93 10.92 18.91-10.93zM49.89 26.7 30.97 37.64 49.9 48.55l18.92-10.93zM7.11 27.67l.01 21.86 18.93 10.91-.01-21.85zM29.33 40.49l.01 21.85 18.93 10.92-.01-21.85zM7.12 53.32l.01 21.85 18.93 10.91-.01-21.85zM29.34 66.14l.01 21.85L48.28 98.9l-.01-21.85zM51.57 98.9l18.92-10.93-.01-21.85-18.92 10.93zM73.78 86.06 92.7 75.13l-.02-21.85-18.91 10.93zM73.76 60.41l18.92-10.93-.01-21.85-18.92 10.93zM51.55 51.4l.01 21.85 18.91-10.93-.01-21.85z"/>
  </g>
</svg>
